<?xml version="1.0" encoding="utf-8"?>
<!-- Generator: Adobe Illustrator 24.1-2.2, SVG Export Plug-In . SVG Version: 6.00 Build 0)  -->
<svg version="1.1" id="Слой_2" xmlns="http://www.w3.org/2000/svg" xmlns:xlink="http://www.w3.org/1999/xlink" x="0px" y="0px"
	 viewBox="0 0 600 191" style="enable-background:new 0 0 600 191;" xml:space="preserve">
<style type="text/css">
	.st0{fill:#FFFFFF;}
</style>
<g>
	<g>
		<path class="st0" d="M106.19,19c1.44,17.58,2.07,35.22,1.87,52.85c-0.06,5.05-0.19,10.1-0.38,15.15c-0.12,3.14,2.84,6.14,6,6
			c3.35-0.15,5.87-2.64,6-6c0.67-17.62,0.52-35.27-0.45-52.88c-0.28-5.04-0.63-10.08-1.04-15.11c-0.26-3.12-2.58-6.15-6-6
			C109.16,13.14,105.92,15.65,106.19,19L106.19,19z"/>
	</g>
</g>
<g>
	<g>
		<path class="st0" d="M110.19,17.76C97.13,18.47,85.34,28.69,82.84,41.6c-0.85,4.39-0.74,8.93,1.44,12.94
			c2.13,3.92,6.1,6.55,10.52,6.96c4.43,0.41,8.35-2,11.64-4.69c2.49-2.04,4.59-4.58,6.31-7.29c3.91-6.15,5.73-13.67,5.64-20.91
			c-0.04-3.14-2.73-6.15-6-6c-3.22,0.14-6.04,2.64-6,6c0.02,1.25-0.02,2.51-0.14,3.75c-0.02,0.25-0.05,0.5-0.08,0.75
			c-0.11,1.05,0.02-0.38,0.07-0.47c-0.28,0.56-0.27,1.6-0.41,2.23c-0.24,1.11-0.54,2.2-0.89,3.27c-0.19,0.6-0.42,1.18-0.64,1.77
			c-0.24,0.65-0.33,0.07,0.17-0.39c-0.21,0.2-0.33,0.74-0.47,1.02c-0.51,1.06-1.09,2.09-1.73,3.08c-0.3,0.47-0.63,0.92-0.95,1.37
			c-0.73,1.04,0.7-0.82,0.14-0.19c-0.28,0.32-0.55,0.66-0.84,0.98c-0.75,0.83-1.56,1.58-2.4,2.31c-0.78,0.68,0.23-0.23,0.34-0.24
			c-0.22,0.03-0.76,0.56-0.95,0.68c-0.24,0.16-0.48,0.32-0.72,0.46c-0.13,0.07-1.08,0.49-1.14,0.61c0.22-0.09,0.43-0.19,0.65-0.28
			c-0.2,0.07-0.4,0.14-0.61,0.19c-1.25,0.35,0.15,0,0.14,0.03c0,0.02-0.81,0-0.79-0.01c0.29,0.04,0.59,0.08,0.88,0.11
			c-0.18-0.03-0.35-0.08-0.52-0.13c-0.73-0.12,1.27,0.77,0.27,0.13c-0.2-0.13-0.42-0.24-0.62-0.37c-1.04-0.62,0.73,0.74,0.22,0.15
			c-0.14-0.12-0.27-0.25-0.39-0.39c-0.33-0.38-0.33-0.36-0.01,0.05c0.35,0.87-0.05-0.1-0.17-0.3c0.02,0.03-0.32-0.64-0.35-0.65
			c0.35,0.07,0.47,1.35,0.1,0.14c-0.11-0.35-0.18-0.7-0.27-1.05c-0.3-1.21,0.04,0.31,0.03,0.31c-0.13-0.11-0.04-0.9-0.04-1.09
			c0-0.37,0.03-0.73,0.04-1.09c0.03-1.46-0.27,1.28,0-0.15c0.22-1.16,0.5-2.31,0.88-3.43c0.18-0.51,1.04-2.16,0.18-0.56
			c0.31-0.57,0.56-1.19,0.87-1.76c0.54-1,1.17-1.93,1.81-2.87c0.33-0.48,0.48-0.2-0.29,0.36c0.21-0.15,0.39-0.48,0.57-0.69
			c0.43-0.5,0.87-0.98,1.33-1.44c0.42-0.42,0.85-0.83,1.3-1.22c0.22-0.19,0.66-0.44,0.82-0.68c-0.22,0.17-0.43,0.34-0.65,0.5
			c0.19-0.14,0.38-0.28,0.57-0.42c1.06-0.75,2.18-1.41,3.34-1.98c0.21-0.1,0.44-0.19,0.64-0.3c-1.44,0.79-0.57,0.24-0.13,0.07
			c0.6-0.22,1.22-0.42,1.84-0.59c0.63-0.17,1.26-0.3,1.89-0.42c0.99-0.19-0.45,0.07-0.55,0.06c0.44,0.05,0.97-0.09,1.42-0.12
			c3.13-0.17,6.15-2.64,6-6C116.05,20.65,113.54,17.58,110.19,17.76L110.19,17.76z"/>
	</g>
</g>
<g>
	<g>
		<path class="st0" d="M121.82,28.75c0.24-0.06,0.48-0.11,0.72-0.17c0.97-0.26-0.35,0.08-0.5,0.05c0.51,0.08,1.13-0.06,1.66-0.04
			c1.48,0.07-1.22-0.28,0.23,0.02c0.55,0.11,1.06,0.29,1.6,0.45c0.96,0.3-0.31-0.09-0.41-0.18c0.13,0.13,0.48,0.24,0.66,0.34
			c0.21,0.12,0.43,0.24,0.63,0.38c0.16,0.1,1.18,0.61,0.29,0.17c-0.73-0.36-0.14-0.09,0.09,0.13c0.18,0.17,0.35,0.34,0.52,0.52
			c0.15,0.16,0.73,0.83,0.22,0.22c-0.56-0.68,0.21,0.33,0.31,0.48c0.69,1.07,1.27,2.21,1.83,3.35c0.27,0.55,0.53,1.1,0.78,1.66
			c0.08,0.19,0.44,1.11,0.15,0.34c-0.31-0.83,0.14,0.4,0.2,0.56c0.44,1.22,0.81,2.46,1.05,3.73c0.05,0.27,0.05,1.19,0.06,0.29
			c0.01-0.9-0.02,0-0.01,0.25c0.04,0.63,0.04,1.26,0,1.89c-0.01,0.09,0.01,0.71-0.07,0.84c0.03-0.26,0.06-0.51,0.09-0.77
			c-0.04,0.21-0.08,0.41-0.13,0.61c-0.06,0.27-0.13,0.54-0.21,0.8c-0.08,0.25-0.16,1.07-0.05,0.26c0.11-0.76,0.03-0.06-0.12,0.23
			c-0.13,0.25-0.26,0.49-0.41,0.72c-0.12,0.19-0.61,0.92-0.08,0.17c0.56-0.79-0.1,0.07-0.26,0.24c-0.09,0.09-0.18,0.17-0.27,0.26
			c-0.38,0.33-0.37,0.33,0.04,0.01c0.11-0.08,0.21-0.16,0.32-0.24c-0.15,0.11-0.3,0.22-0.46,0.32c-0.18,0.11-1.62,1.03-0.76,0.46
			c0.69-0.46,0.17-0.09-0.15,0c-0.23,0.07-0.47,0.11-0.71,0.17c-0.76,0.19,1.29-0.03,0.51-0.09c-0.16-0.01-0.77-0.11-0.91-0.02
			c0.49-0.3,1.32,0.26,0.29-0.03c-0.3-0.09-0.87-0.47-0.18-0.02c0.74,0.49,0.07,0.01-0.15-0.11c-0.23-0.12-0.44-0.26-0.66-0.4
			c-0.05-0.04-0.11-0.07-0.16-0.11c-0.42-0.3-0.42-0.3-0.02,0c0.1,0.08,0.2,0.15,0.3,0.23c-0.15-0.13-0.3-0.26-0.44-0.39
			c-0.48-0.44-0.93-0.92-1.36-1.42c-0.14-0.17-0.65-0.87-0.15-0.17c0.51,0.71-0.02-0.04-0.14-0.22c-0.32-0.45-0.62-0.91-0.91-1.39
			c-0.65-1.06-1.23-2.16-1.75-3.29c-0.09-0.2-0.49-1.02-0.12-0.23c0.4,0.85-0.1-0.25-0.17-0.44c-0.25-0.65-0.49-1.3-0.71-1.96
			c-0.42-1.26-0.79-2.54-1.12-3.83c-0.69-2.65-1.22-5.34-1.75-8.02c-0.6-3.09-4.46-5.14-7.38-4.19c-3.28,1.06-4.84,4.07-4.19,7.38
			c1.18,6.03,2.54,11.94,5.15,17.54c2.96,6.34,8.07,12.35,15.43,13.05c7.38,0.7,13.99-5.54,15.36-12.49
			c1.43-7.26-1.1-14.37-4.68-20.63c-4.07-7.13-12.08-10.91-20.14-8.84c-3.04,0.78-5.18,4.34-4.19,7.38
			C115.45,27.7,118.56,29.59,121.82,28.75L121.82,28.75z"/>
	</g>
</g>
<g>
	<g>
		<path class="st0" d="M164.57,42.57c0.39-0.36,0.79-0.73,1.19-1.07c0.35-0.3,1.43-1.47,0.37-0.34c0.7-0.74,1.84-1.32,2.71-1.84
			c0.47-0.28,0.94-0.54,1.42-0.78c0.24-0.12,0.48-0.23,0.73-0.35c0.95-0.47-0.19,0.13-0.33,0.14c0.43-0.02,1.07-0.38,1.49-0.51
			c0.56-0.16,1.13-0.27,1.7-0.39c0.79-0.17-1.26,0.08-0.46,0.07c0.19,0,0.38-0.03,0.57-0.04c0.25-0.01,1.37,0.17,1.52,0.04
			c-0.27,0.23-1.31-0.25-0.46-0.05c0.25,0.06,0.5,0.11,0.75,0.17c0.25,0.07,0.49,0.16,0.75,0.23c1.07,0.3-0.85-0.45-0.25-0.11
			c0.41,0.23,0.82,0.43,1.21,0.69c1.18,0.77-0.9-0.83,0.15,0.11c0.3,0.27,0.59,0.55,0.87,0.84c0.16,0.17,0.3,0.35,0.46,0.52
			c0.84,0.91-0.77-1.14-0.08-0.1c0.49,0.75,0.96,1.5,1.37,2.3c0.09,0.18,0.8,1.73,0.38,0.77c-0.36-0.82-0.09-0.22-0.03-0.04
			c0.12,0.34,0.25,0.68,0.37,1.03c0.68,2.03,1.09,4.12,1.43,6.23c0.18,1.14,0.02,0.03-0.02-0.16c0.07,0.3,0.08,0.66,0.11,0.96
			c0.07,0.64,0.13,1.28,0.18,1.92c0.11,1.29,0.18,2.57,0.23,3.86c0.1,2.66,0.12,5.33,0.13,7.99c0.03,5.99,0.07,11.97,0.1,17.96
			c0.02,3.14,2.75,6.15,6,6c3.24-0.14,6.02-2.64,6-6c-0.03-5.9-0.07-11.81-0.1-17.71c-0.04-6.2-0.17-12.35-1.14-18.49
			c-0.79-4.95-2.44-9.85-5.53-13.85c-3.53-4.57-9.05-7.55-14.95-7.06c-6.7,0.56-12.47,4.09-17.3,8.6c-2.3,2.15-2.33,6.34,0,8.49
			C158.55,44.83,162.12,44.86,164.57,42.57L164.57,42.57z"/>
	</g>
</g>
<g>
	<g>
		<path class="st0" d="M179.76,42.38c-4.79,2.87-9.61,5.69-14.36,8.63c-4.91,3.03-9.09,7.12-10.45,12.92
			c-1.36,5.79,0.04,11.91,4.26,16.2c4.21,4.28,10.59,6.03,16.34,4.17c2.97-0.96,5.68-2.56,8.29-4.22c2.97-1.89,5.47-4.01,7.55-6.85
			c1.86-2.54,0.51-6.8-2.15-8.21c-3.12-1.65-6.23-0.56-8.21,2.15c0.09-0.13,0.9-1.02,0.2-0.27c-0.14,0.15-0.27,0.3-0.4,0.44
			c-0.32,0.34-0.66,0.66-1.01,0.96c-0.18,0.16-0.48,0.34-0.61,0.51c0.01-0.02,0.96-0.69,0.42-0.33c-0.45,0.29-0.88,0.62-1.33,0.91
			c-1.73,1.13-3.51,2.18-5.34,3.12c-0.81,0.42,0.06-0.21,0.23-0.08c-0.03-0.03-0.56,0.21-0.61,0.23c-0.48,0.17-0.98,0.27-1.46,0.41
			c-0.68,0.19-0.39-0.25,0.3-0.03c-0.13-0.04-0.4,0.02-0.54,0.02c-0.18,0-0.36-0.01-0.54,0c-1.19,0.02,1,0.24,0.35,0.07
			c-0.41-0.1-0.82-0.17-1.22-0.3c-0.22-0.07-0.46-0.19-0.68-0.24c0.01,0,1.13,0.57,0.61,0.24c-0.35-0.22-0.73-0.43-1.1-0.63
			c-0.4-0.22-0.56-0.65,0.34,0.3c-0.16-0.17-0.37-0.31-0.55-0.47c-0.31-0.29-0.58-0.62-0.88-0.91c-0.44-0.43,0.37,0.49,0.37,0.51
			c-0.08-0.19-0.29-0.42-0.41-0.6c-0.23-0.36-0.4-0.74-0.6-1.11c-0.3-0.55,0.26,0.6,0.26,0.6c0.01-0.22-0.21-0.65-0.27-0.89
			c-0.06-0.24-0.1-0.49-0.16-0.72c-0.17-0.6,0.09,0.65,0.08,0.68c0.12-0.29-0.06-0.95-0.06-1.29c0-0.37,0.18-0.96,0.08-1.29
			c0.04,0.14-0.29,1.49-0.04,0.49c0.06-0.24,0.11-0.48,0.17-0.72c0.11-0.42,0.27-0.83,0.4-1.24c0.19-0.61-0.24,0.57-0.25,0.57
			c0.13-0.15,0.23-0.48,0.33-0.67c0.21-0.38,0.43-0.76,0.67-1.12c0.1-0.15,0.24-0.3,0.32-0.46c-0.62,1.16-0.46,0.59-0.11,0.21
			c0.33-0.36,0.68-0.7,1.05-1.02c0.12-0.1,0.63-0.46,0.65-0.55c-0.01,0.05-0.92,0.65-0.37,0.29c0.9-0.58,1.77-1.19,2.69-1.75
			c4.59-2.79,9.21-5.53,13.81-8.29c2.69-1.62,3.92-5.46,2.15-8.21C186.23,41.83,182.64,40.65,179.76,42.38L179.76,42.38z"/>
	</g>
</g>
<g>
	<g>
		<path class="st0" d="M201.22,27.03c-0.63,9.32-0.78,18.78,3.29,27.42c2.05,4.36,5.35,7.96,9.2,10.8c2.77,2.04,6.33,4.05,9.72,2.08
			c2.46-1.43,3.84-4.24,3.06-7.06c-0.76-2.75-3.33-4.61-6.15-4.63c-2.83-0.02-4.86,1.92-5.79,4.4c-0.02,0.04-0.03,0.08-0.05,0.12
			c-1.1,2.95,1.22,6.7,4.19,7.38c3.4,0.78,6.2-1.04,7.38-4.19c0.02-0.04,0.03-0.08,0.05-0.12c-1.93,1.47-3.86,2.94-5.79,4.4
			c0.04,0,0.09,0,0.13,0c-1.01-0.27-2.02-0.55-3.03-0.82c0.05,0.03,0.1,0.06,0.15,0.09c-0.72-0.72-1.44-1.44-2.15-2.15
			c0.03,0.05,0.06,0.09,0.09,0.14c-0.2-1.54-0.4-3.08-0.6-4.62c-0.01,0.05-0.03,0.1-0.04,0.15c0.92-1.2,1.84-2.39,2.76-3.59
			c-0.09,0.05-0.18,0.09-0.26,0.14c1.01-0.27,2.02-0.55,3.03-0.82c2.57,0.29,2.48,0.74,1.35,0.07c-0.34-0.2-0.68-0.42-1.01-0.64
			c-0.24-0.16-0.87-0.45-0.98-0.69c0.16,0.38,0.91,0.73,0.12,0.07c-1.18-1-2.07-2.25-3.18-3.29c0.44,0.41,0.6,0.81,0.11,0.09
			c-0.23-0.33-0.45-0.66-0.66-1c-0.4-0.64-0.77-1.31-1.1-1.99c-0.17-0.34-0.89-1.39-0.09-0.11c-0.21-0.34-0.32-0.81-0.45-1.18
			c-0.26-0.73-0.48-1.46-0.68-2.21c-0.2-0.75-0.37-1.5-0.51-2.26c-0.06-0.34-0.07-0.94-0.21-1.25c0.24,0.54,0.13,1.06,0.02,0.12
			c-0.18-1.64-0.27-3.28-0.3-4.93c-0.05-3.31,0.15-6.62,0.38-9.93c0.21-3.14-2.91-6.14-6-6C203.79,21.18,201.45,23.67,201.22,27.03
			L201.22,27.03z"/>
	</g>
</g>
<g>
	<g>
		<path class="st0" d="M228.85,20.92c-6.36,9.67-8.3,21.31-9.37,32.61c-0.55,5.8-0.91,11.62-1.61,17.41
			c-0.12,0.98,0.23-1.48-0.01,0.06c-0.05,0.31-0.09,0.63-0.14,0.95c-0.11,0.71-0.23,1.42-0.35,2.12c-0.25,1.4-0.53,2.79-0.87,4.17
			c-0.28,1.12-0.6,2.24-0.99,3.33c-0.08,0.23-0.22,0.49-0.27,0.72c0.29-1.21,0.36-0.79,0.15-0.38c-0.28,0.57-0.55,1.14-0.88,1.68
			c-0.16,0.27-0.33,0.53-0.5,0.79c-0.1,0.16-0.21,0.31-0.32,0.46c0.53-0.67,0.65-0.83,0.36-0.48c-0.43,0.45-0.87,0.89-1.31,1.33
			c-0.55,0.55,1.32-0.74,0.13-0.11c-0.36,0.19-1.51,0.66-0.08,0.16c-0.4,0.14-0.99,0.12,0.37,0.03c-1.36,0.09,1.26,0.31,0.15,0
			c1.21,0.34,0.92,0.4,0.5,0.13c1.48,0.95,0.44,0.18,0.15-0.01c0.69,0.45,0.63,0.88,0.31,0.33c-0.58-1,0.26,1.25,0,0.04
			c-0.07-0.35-0.17-0.71-0.25-1.06c-0.17-0.7,0.02,1.21,0.04,0.07c0.02-0.88-0.02-1.76,0-2.65c0.09-3.14-2.82-6.14-6-6
			c-3.33,0.15-5.9,2.64-6,6c-0.12,4.18,0.42,8.16,3.18,11.47c2.68,3.2,7.19,4.5,11.13,3.06c6.63-2.42,10.12-9.27,11.71-15.73
			c1.59-6.46,2.18-13.16,2.72-19.78c0.27-3.34,0.52-6.69,0.87-10.03c0.07-0.67,0.14-1.34,0.22-2.02c0.04-0.36,0.09-0.71,0.13-1.07
			c0.13-1.1-0.04,0.16-0.04,0.32c0.07-1.54,0.47-3.16,0.76-4.67c0.62-3.23,1.43-6.42,2.54-9.51c0.1-0.27,0.19-0.53,0.3-0.8
			c0.06-0.16,0.71-1.76,0.33-0.86c-0.39,0.92,0.17-0.37,0.21-0.45c0.18-0.39,0.36-0.77,0.55-1.15c0.75-1.53,1.61-3.01,2.54-4.43
			c1.73-2.63,0.61-6.75-2.15-8.21C234.06,17.18,230.7,18.12,228.85,20.92L228.85,20.92z"/>
	</g>
</g>
<g>
	<g>
		<path class="st0" d="M242.55,26.56c1.08,3.98,2.22,8.22,2.54,12.35c-0.03-0.22-0.06-0.45-0.09-0.67c0.04,0.31,0.08,0.62,0.12,0.93
			c0.06,0.46,0.11,0.93,0.16,1.39c0.12,1.08,0.22,2.17,0.3,3.26c0.15,2.02,0.24,4.04,0.27,6.07c0.06,4.05-0.12,8.1-0.54,12.13
			c-0.06,0.54-0.12,1.08-0.18,1.62c-0.03,0.23-0.06,0.46-0.09,0.7c0.11-0.82,0.12-0.89,0.03-0.21c-0.14,0.92-0.28,1.85-0.43,2.77
			c-0.37,2.15-0.81,4.28-1.32,6.41c3.86,0,7.71,0,11.57,0c-0.41,1.45-0.83,2.9-1.24,4.36c1.04-1.27,1.76-2.54,1.76-4.24
			c0-1.47-0.65-3.23-1.76-4.24c-2.2-2.02-6.37-2.6-8.49,0c-1.74,2.13-2.64,4.57-1.85,7.32c0.71,2.44,3.15,4.52,5.79,4.4
			c2.58-0.12,5.16-1.77,5.79-4.4c4.14-17.45,3.92-35.8-0.76-53.13c-0.82-3.03-4.31-5.19-7.38-4.19
			C243.63,20.18,241.67,23.31,242.55,26.56L242.55,26.56z"/>
	</g>
</g>
<g>
	<g>
		<path class="st0" d="M247.35,55.04c10.59-2.36,21.18-4.71,31.77-7.07c3.07-0.68,5.15-4.4,4.19-7.38
			c-1.04-3.22-4.09-4.92-7.38-4.19c-10.59,2.36-21.18,4.71-31.77,7.07c-3.07,0.68-5.15,4.4-4.19,7.38
			C241.01,54.07,244.06,55.77,247.35,55.04L247.35,55.04z"/>
	</g>
</g>
<g>
	<g>
		<path class="st0" d="M266.98,23.64c1.66,3.97,3.04,8.06,4.1,12.24c0.53,2.09,0.98,4.19,1.35,6.31c0.19,1.06,0.39,2.12,0.5,3.19
			c-0.18-1.7,0.04,0.38,0.07,0.69c0.06,0.53,0.11,1.07,0.16,1.61c0.4,4.3,0.53,8.66,0.13,12.97c-0.05,0.46-0.04,0.31,0.05-0.44
			c-0.05,0.31-0.11,0.61-0.17,0.92c-0.11,0.52-0.24,1.04-0.4,1.56c-0.08,0.27-0.24,1.2-0.47,1.35c0.35-0.8,0.39-0.91,0.12-0.31
			c-0.09,0.18-0.18,0.37-0.27,0.55c-0.22,0.42-0.45,0.84-0.71,1.24c-0.09,0.14-0.96,1.56-0.46,0.73c0.48-0.8-0.43,0.48-0.57,0.65
			c-0.37,0.4-0.76,0.78-1.16,1.15c-2.31,2.13-2.32,6.35,0,8.49c2.48,2.27,6.02,2.28,8.49,0c3.58-3.3,6.2-7.86,7.09-12.66
			c0.93-5.01,0.82-10.21,0.4-15.27c-0.79-9.68-2.95-19.18-6.69-28.15c-0.63-1.51-1.29-2.72-2.76-3.59c-1.29-0.75-3.18-1.07-4.62-0.6
			C268.4,17.16,265.69,20.54,266.98,23.64L266.98,23.64z"/>
	</g>
</g>
<g>
	<g>
		<path class="st0" d="M304.16,27.5c1.57-1.88,3.16-3.76,4.97-5.42c0.2-0.18,0.4-0.36,0.61-0.54c0.08-0.07,1.1-0.94,0.33-0.3
			c-0.67,0.55,0.02,0,0.2-0.13c0.27-0.19,0.55-0.38,0.84-0.55c0.46-0.28,0.93-0.53,1.41-0.78c0.95-0.51-0.24,0.13-0.39,0.14
			c0.24-0.01,0.7-0.26,0.94-0.33c0.43-0.13,0.86-0.21,1.3-0.31c1.17-0.27-1.24,0.09-0.43,0.06c0.22-0.01,0.45-0.03,0.67-0.04
			c0.43-0.01,1.08,0.15,1.5,0.05c-0.09,0.02-1.55-0.3-0.61-0.08c0.32,0.08,0.64,0.13,0.95,0.23c0.21,0.06,0.41,0.14,0.62,0.2
			c0.91,0.27-0.49-0.16-0.55-0.23c0.1,0.13,1.66,1.14,0.74,0.36c-0.93-0.79,0.4,0.55,0.55,0.61c-0.13-0.05-0.8-1.25-0.36-0.43
			c0.11,0.17,0.22,0.36,0.31,0.54c0.2,0.4,0.15,0.24-0.17-0.49c0.61,0.73,0.74,2.56,0.9,3.47c0.12,0.67,0.32,1.42,0.35,2.1
			c-0.01-0.19-0.16-1.33-0.03-0.19c0.05,0.47,0.11,0.94,0.16,1.41c0.27,2.74,0.38,5.49,0.37,8.24c-0.01,5.71-0.5,11.4-0.92,17.09
			c-0.48,6.41-0.88,12.83-0.52,19.25c0.18,3.13,2.63,6.15,6,6c3.1-0.14,6.19-2.64,6-6c-0.71-12.54,1.56-24.99,1.44-37.52
			c-0.03-3.07-0.22-6.13-0.61-9.17c-0.46-3.56-0.89-7.26-2.7-10.43c-3.39-5.93-10.35-7.7-16.69-6.62
			c-6.61,1.12-11.56,6.45-15.65,11.34c-2.01,2.4-2.53,6.16,0,8.49C297.89,29.54,302.01,30.07,304.16,27.5L304.16,27.5z"/>
	</g>
</g>
<g>
	<g>
		<path class="st0" d="M320.15,29.22c-11.82,0.42-25.24,6.92-28.36,19.25c-1.54,6.07-0.05,12.4,4.06,17.13
			c4.27,4.91,11.43,6.29,17.53,4.58c6.67-1.86,11.67-7.08,15.05-12.91c1.58-2.72,0.72-6.69-2.15-8.21
			c-2.87-1.52-6.53-0.75-8.21,2.15c-0.51,0.87-1.04,1.73-1.62,2.56c-0.13,0.18-0.69,0.87-0.13,0.21c0.53-0.63,0.07-0.09-0.03,0.03
			c-0.39,0.46-0.78,0.92-1.19,1.36c-0.32,0.34-0.65,0.67-1,0.99c-0.2,0.18-0.4,0.35-0.6,0.53c-0.56,0.52,0.11,0.2,0.28-0.19
			c-0.13,0.3-0.86,0.61-1.16,0.79c-0.31,0.2-1.38,0.58-1.58,0.87c0.07-0.1,1.35-0.49,0.31-0.13c-0.19,0.07-0.38,0.14-0.57,0.2
			c-0.45,0.15-0.91,0.27-1.37,0.37c0.06-0.01-0.79,0.17-0.8,0.15c-0.03-0.09,1.59-0.09,0.39-0.08c-0.54,0-1.07,0.01-1.6,0.01
			c-1.16-0.02,0.4-0.02,0.41,0.08c0,0-0.84-0.17-0.78-0.16c-0.26-0.06-0.51-0.15-0.77-0.21c-0.19-0.05-0.75-0.34-0.03,0.02
			c0.86,0.44-0.48-0.26-0.68-0.39c-0.02-0.01-0.52-0.39-0.6-0.39c0.69,0.55,0.86,0.68,0.51,0.39c-0.09-0.08-0.18-0.15-0.27-0.23
			c-0.31-0.28-0.58-0.58-0.87-0.89c-0.67-0.71,0.24,0.26,0.28,0.38c-0.06-0.18-0.29-0.42-0.4-0.59c-0.22-0.36-0.4-0.73-0.6-1.1
			c-0.38-0.67,0.42,1.18,0.18,0.45c-0.1-0.28-0.21-0.56-0.29-0.85c-0.12-0.4-0.22-0.81-0.31-1.22c-0.29-1.45,0.07,1.29-0.01-0.19
			c-0.02-0.42-0.03-0.84-0.01-1.26c0.01-0.23,0.08-0.53,0.06-0.75c0.05,0.52-0.2,1.22,0,0.25c0.09-0.44,0.21-0.88,0.34-1.31
			c0.08-0.25,0.17-0.49,0.25-0.73c0.18-0.54,0.44-0.4-0.16,0.36c0.61-0.77,1-1.87,1.56-2.7c0.58-0.87-0.81,0.94,0.15-0.17
			c0.3-0.35,0.61-0.68,0.93-1.01c0.37-0.37,0.76-0.71,1.15-1.06c0.12-0.1,0.65-0.5,0.03-0.04c-0.74,0.53,0.27-0.19,0.42-0.29
			c1-0.68,2.05-1.28,3.14-1.81c0.26-0.12,0.52-0.24,0.78-0.36c0.67-0.32-1.11,0.4-0.05,0.03c0.54-0.18,1.08-0.39,1.62-0.57
			c1.23-0.39,2.48-0.71,3.74-0.97c0.2-0.04,1.69-0.48,1.83-0.33c-0.04-0.04-1.18,0.09-0.21,0.05c0.46-0.02,0.93-0.07,1.39-0.08
			c3.13-0.11,6.15-2.68,6-6C326.01,32.07,323.51,29.11,320.15,29.22L320.15,29.22z"/>
	</g>
</g>
<g>
	<g>
		<path class="st0" d="M32.66,118.6c1.51-0.81,3.15-1.84,4.8-2.34c-1.47,0.45-0.08,0.04,0.21-0.08c0.41-0.17,0.83-0.33,1.25-0.48
			c0.97-0.36,1.96-0.7,2.95-1c1.7-0.52,3.42-0.96,5.16-1.3c0.43-0.08,0.87-0.16,1.31-0.24c0.35-0.06,1.74-0.44,0.16-0.04
			c0.97-0.24,2.1-0.22,3.09-0.27c1.68-0.09,3.36-0.07,5.03,0.05c0.4,0.03,0.8,0.08,1.2,0.11c1.42,0.12-1.4-0.24,0-0.01
			c0.93,0.16,1.85,0.32,2.77,0.53c1.44,0.33,2.86,0.75,4.24,1.26c0.26,0.09,0.94,0.23,1.12,0.44c-0.23-0.1-0.46-0.19-0.69-0.29
			c0.24,0.11,0.49,0.22,0.73,0.33c0.85,0.39,1.68,0.83,2.49,1.29c0.69,0.4,1.37,0.83,2.03,1.28c0.22,0.15,0.85,0.46,0.97,0.7
			c-0.19-0.15-0.39-0.3-0.58-0.45c0.21,0.17,0.42,0.33,0.62,0.51c0.62,0.52,1.22,1.07,1.79,1.64c0.29,0.29,0.58,0.59,0.85,0.9
			c0.18,0.21,0.36,0.42,0.54,0.63c-0.51-0.68-0.57-0.75-0.19-0.23c0.33,0.54,1.2,1.49,1.22,2.14c-0.1-0.22-0.2-0.45-0.3-0.67
			c0.09,0.25,0.17,0.51,0.25,0.77c0.02,0.08,0.3,1.17,0.27,1.18c-0.03-0.27-0.07-0.53-0.1-0.8c0.03,0.27,0.05,0.54,0.06,0.81
			c0.02,0.4,0.01,0.81,0,1.22c-0.01,0.14-0.02,0.27-0.03,0.41c-0.07,0.67-0.04,0.54,0.07-0.38c0.11,0.07-0.31,1.45-0.35,1.6
			c-0.11,0.4-0.25,0.78-0.37,1.18c-0.39,1.34,0.62-1.16-0.02,0.09c-0.37,0.73-0.74,1.45-1.19,2.14c-0.22,0.34-0.46,0.67-0.69,1
			c-0.79,1.16,0.87-0.99-0.06,0.06c-0.54,0.61-1.08,1.22-1.66,1.79c-0.58,0.58-1.18,1.13-1.81,1.66c-0.31,0.27-0.63,0.52-0.95,0.79
			c-1.09,0.92,1.07-0.77-0.08,0.07c-1.5,1.1-3.03,2.16-4.62,3.14c-1.72,1.06-3.5,2.04-5.31,2.93c-0.88,0.43-1.82,0.98-2.76,1.27
			c1.5-0.47,0.13-0.06-0.17,0.06c-0.54,0.21-1.08,0.42-1.62,0.62c-1.9,0.7-3.83,1.31-5.79,1.82c-0.27,0.07-2.86,0.54-2.88,0.67
			c0.27-0.04,0.54-0.07,0.81-0.11c-0.26,0.03-0.52,0.04-0.79,0.03c0.95,0.18,1.11,0.19,0.47,0.05c0.84,0.41,0.98,0.44,0.43,0.1
			c-2.6-1.77-6.77-0.58-8.21,2.15c-1.61,3.04-0.63,6.32,2.15,8.21c4.27,2.9,10.07,0.94,14.54-0.5c4.2-1.35,8.31-3.1,12.18-5.2
			c3.76-2.04,7.31-4.48,10.6-7.21c3.16-2.62,6.13-5.91,7.83-9.67c2.06-4.54,3.01-9.66,1.54-14.55c-1.33-4.42-4.39-8.1-7.96-10.92
			c-6.86-5.4-15.11-8.27-23.82-8.66c-10.05-0.45-20.02,2.72-28.8,7.41c-2.77,1.48-3.86,5.56-2.15,8.21
			C26.27,119.27,29.7,120.19,32.66,118.6L32.66,118.6z"/>
	</g>
</g>
<g>
	<g>
		<path class="st0" d="M111.83,116.72c-4.41-0.11-7.97,2.56-10.75,5.71c-2.51,2.85-5.08,5.81-6.89,9.17
			c-1.9,3.52-3.25,7.69-2.96,11.74c0.29,3.9,1.65,7.55,3.92,10.73c2,2.81,4.37,5.82,7.06,8.02c2.02,1.65,4.26,2.82,6.93,2.91
			c2.28,0.07,4.56-0.68,6.38-2.03c6.03-4.45,8.69-12.58,9.55-19.74c0.91-7.56-0.85-15.56-4.85-22.04c-1.38-2.24-4.19-3.51-6.78-2.76
			c-0.42,0.12-0.84,0.24-1.25,0.36c-3.01,0.87-5.2,4.27-4.19,7.38c0.99,3.06,4.15,5.13,7.38,4.19c0.42-0.12,0.84-0.24,1.25-0.36
			c-2.26-0.92-4.52-1.84-6.78-2.76c0.65,1.05,1.2,2.14,1.74,3.25c0.38,0.78-0.54-1.42-0.08-0.18c0.09,0.24,0.19,0.48,0.27,0.73
			c0.26,0.73,0.5,1.47,0.7,2.22c0.14,0.5,0.26,1,0.37,1.51c0.1,0.44,0.1,1.54,0.34,1.91c-0.37-0.56-0.13-1.17-0.07-0.44
			c0.03,0.32,0.06,0.64,0.09,0.97c0.05,0.71,0.08,1.42,0.08,2.14c0,1.17-0.08,2.33-0.19,3.49c-0.12,1.33,0.2-1.11,0.03-0.25
			c-0.06,0.32-0.11,0.64-0.17,0.96c-0.12,0.64-0.27,1.27-0.43,1.89c-0.16,0.63-0.35,1.25-0.56,1.86c-0.08,0.25-0.17,0.49-0.26,0.73
			c-0.05,0.12-0.09,0.24-0.14,0.36c-0.24,0.6-0.18,0.48,0.17-0.35c-0.02,0-1.62,3.18-1.78,3.45c-0.09,0.14-0.83,1.29-0.85,1.28
			c0.16-0.2,0.31-0.4,0.47-0.6c-0.16,0.2-0.33,0.39-0.51,0.58c-0.12,0.13-0.5,0.41-0.55,0.54c0.27-0.64,0.94-0.57,0.32-0.25
			c-0.38,0.2-1.47,0.63,0.12,0.01c-0.37,0.14-1.13,0.11,0.53-0.05c-1.19,0.11,1.28,0.28,0.14-0.03c1.32,0.37,0.77,0.27,0.29,0.02
			c-0.69-0.36,1.04,1.02,0.17,0.12c-0.36-0.37-0.74-0.71-1.09-1.08c-0.97-1.02-1.92-2.07-2.82-3.15c-0.18-0.21-0.56-0.53-0.64-0.79
			c0.03,0.09,0.83,1.14,0.2,0.25c-0.39-0.55-0.77-1.09-1.13-1.66c-0.28-0.45-0.54-0.91-0.77-1.39c-0.06-0.12-0.12-0.24-0.17-0.36
			c-0.27-0.59-0.22-0.48,0.14,0.35c-0.06,0.01-0.36-1.07-0.37-1.12c-0.07-0.25-0.12-0.51-0.19-0.77c-0.33-1.28,0.03,1.06,0,0.17
			c-0.02-0.65-0.04-1.28-0.03-1.93c0.03-1.41-0.23,0.97-0.04,0.1c0.08-0.35,0.13-0.71,0.22-1.06c0.06-0.24,0.76-1.92,0.65-2.07
			c-0.09,0.21-0.18,0.42-0.27,0.63c0.09-0.2,0.18-0.4,0.27-0.59c0.19-0.39,0.39-0.78,0.6-1.17c0.4-0.72,0.84-1.43,1.31-2.11
			c0.17-0.25,0.34-0.5,0.52-0.74c0.18-0.24,0.36-0.49,0.54-0.73c-0.43,0.56-0.51,0.66-0.24,0.32c0.54-0.64,1.05-1.29,1.59-1.92
			c0.99-1.15,2.01-2.23,3.06-3.31c0.35-0.36,0.71-0.29-0.32,0.21c0.31-0.15,0.65-0.43,0.95-0.61c1.03-0.63-1,0.22-0.26,0.12
			c1.51-0.21-1.22,0,0.03,0.03c3.14,0.08,6.14-2.82,6-6C117.68,119.4,115.2,116.8,111.83,116.72L111.83,116.72z"/>
	</g>
</g>
<g>
	<g>
		<path class="st0" d="M156.25,106.18c-13.31,6.54-22.75,20.12-23.99,34.91c-0.66,7.91,1.74,15.61,6.75,21.73
			c5.09,6.22,13.46,9.82,21.44,8.27c7.98-1.55,13.09-8.92,16.92-15.44c1.59-2.71,0.71-6.7-2.15-8.21c-2.88-1.52-6.51-0.74-8.21,2.15
			c-0.68,1.16-1.37,2.31-2.1,3.43c-0.34,0.52-0.68,1.03-1.04,1.53c-0.19,0.27-0.52,0.59-0.66,0.89c0.57-0.73,0.65-0.84,0.26-0.35
			c-0.12,0.14-0.23,0.28-0.35,0.42c-0.82,0.96-1.71,1.82-2.65,2.66c-0.95,0.84,1.16-0.78,0.1-0.09c-0.19,0.13-0.38,0.26-0.58,0.38
			c-0.29,0.18-0.59,0.36-0.9,0.52c-0.2,0.11-0.41,0.21-0.62,0.3c0.86-0.35,1.07-0.44,0.64-0.27c-0.62,0.2-1.22,0.37-1.85,0.52
			c-1.16,0.29,1.01,0,0.15-0.03c-0.36-0.01-0.73,0.03-1.1,0.02c-0.15-0.01-0.29-0.01-0.44-0.02c-0.68-0.06-0.59-0.04,0.28,0.07
			c-0.33,0.03-0.76-0.14-1.08-0.21c-0.33-0.08-0.67-0.16-1-0.26c-0.3-0.09-1.1-0.53-1.38-0.47c0.1-0.02,1.34,0.64,0.43,0.17
			c-0.32-0.17-0.65-0.32-0.97-0.49c-0.53-0.29-1.05-0.61-1.55-0.95c-0.1-0.07-0.2-0.14-0.3-0.21c-0.51-0.37-0.4-0.28,0.34,0.28
			c-0.12-0.21-0.51-0.42-0.7-0.59c-0.6-0.52-1.17-1.08-1.7-1.67c-0.16-0.18-0.33-0.37-0.49-0.55c-0.08-0.09-0.16-0.19-0.24-0.28
			c-0.4-0.5-0.31-0.38,0.26,0.34c0-0.33-0.82-1.19-1.03-1.53c-0.39-0.63-0.74-1.28-1.06-1.94c-0.11-0.22-0.19-0.46-0.31-0.67
			c0.87,1.53,0.09,0.18-0.07-0.28c-0.23-0.67-0.43-1.35-0.6-2.04c-0.14-0.58-0.54-1.55-0.43-2.15c0.03,0.24,0.06,0.48,0.09,0.73
			c-0.03-0.29-0.06-0.58-0.09-0.87c-0.04-0.44-0.07-0.88-0.08-1.31c-0.03-0.88-0.02-1.76,0.02-2.64c0.02-0.37,0.05-0.73,0.08-1.1
			c0.03-0.38,0.06-1.45-0.04,0.06c0.05-0.8,0.26-1.62,0.43-2.39c0.36-1.66,0.85-3.28,1.45-4.87c0.08-0.22,0.46-0.85,0.42-1.07
			c0.02,0.1-0.61,1.33-0.15,0.38c0.3-0.63,0.6-1.27,0.92-1.89c0.68-1.3,1.44-2.56,2.26-3.78c0.22-0.32,0.44-0.63,0.66-0.94
			c0.11-0.16,0.23-0.31,0.34-0.46c0.27-0.36,0.15-0.21-0.36,0.45c0.01,0.01,1.32-1.59,1.47-1.76c1.1-1.24,2.28-2.41,3.54-3.5
			c0.19-0.17,0.39-0.33,0.58-0.5c0.2-0.16,0.39-0.33,0.59-0.49c0.5-0.4,0.4-0.32-0.31,0.23c0,0,1.71-1.22,1.87-1.33
			c1.38-0.92,2.83-1.74,4.32-2.47c2.82-1.39,3.82-5.62,2.15-8.21C162.6,105.44,159.27,104.7,156.25,106.18L156.25,106.18z"/>
	</g>
</g>
<g>
	<g>
		<path class="st0" d="M206.9,105.02c-6.32,2.44-12.09,6.22-16.37,11.53c-4.83,5.99-7.65,12.94-8.3,20.61
			c-0.59,6.98,1.03,14.81,5.03,20.64c4.37,6.37,11.63,10.58,19.52,10.02c8.86-0.63,15.97-6.27,19.16-14.46
			c1.14-2.93-1.25-6.71-4.19-7.38c-3.44-0.78-6.16,1.05-7.38,4.19c-0.47,1.22,0.67-1.23,0.03-0.1c-0.12,0.21-0.22,0.43-0.34,0.64
			c-0.29,0.53-0.63,1.03-0.97,1.53c-0.69,1.04,0.72-0.81,0.16-0.21c-0.21,0.22-0.4,0.46-0.61,0.68c-0.46,0.49-0.96,0.92-1.46,1.36
			c-0.62,0.55,1.24-0.86,0.2-0.17c-0.2,0.13-0.4,0.27-0.61,0.4c-0.51,0.33-1.05,0.59-1.59,0.88c-1.13,0.62,1.33-0.43,0.1-0.04
			c-0.23,0.07-0.46,0.16-0.69,0.23c-0.37,0.12-2.06,0.29-2.24,0.51c0.09-0.11,1.51-0.1,0.43-0.09c-0.39,0.01-0.78,0.04-1.18,0.04
			c-0.26,0-0.52-0.01-0.78-0.02c-0.31-0.02-1.23-0.34-0.37,0c0.92,0.36-0.14-0.03-0.36-0.08c-0.26-0.05-0.51-0.11-0.77-0.17
			c-0.38-0.1-0.76-0.21-1.13-0.33c-0.12-0.04-0.25-0.09-0.37-0.13c-0.61-0.23-0.49-0.18,0.34,0.17c-0.08,0.09-1.61-0.84-1.74-0.91
			c-0.22-0.14-0.44-0.29-0.66-0.42c-1.15-0.68,0.95,0.9-0.03-0.01c-0.44-0.41-0.89-0.8-1.3-1.24c-0.23-0.24-0.44-0.5-0.66-0.74
			c-0.85-0.94,0.6,0.94-0.03-0.05c-0.72-1.14-1.38-2.26-1.97-3.48c-0.5-1.04,0.12,0.32,0.13,0.33c-0.14-0.05-0.37-0.98-0.42-1.13
			c-0.25-0.73-0.48-1.47-0.67-2.22c-0.16-0.61-0.29-1.23-0.41-1.85c-0.02-0.14-0.05-0.28-0.07-0.42c-0.1-0.67-0.09-0.55,0.03,0.34
			c-0.08-0.22-0.07-0.62-0.09-0.84c-0.15-1.54-0.18-3.09-0.09-4.64c0.04-0.63,0.1-1.26,0.17-1.89c0.09-0.91-0.29,1.52,0,0.13
			c0.07-0.34,0.12-0.69,0.2-1.04c0.3-1.45,0.7-2.88,1.2-4.27c0.1-0.26,0.2-0.53,0.3-0.79c0.51-1.37-0.58,1.19,0.06-0.12
			c0.29-0.6,0.58-1.19,0.9-1.78c0.61-1.11,1.29-2.19,2.04-3.22c0.08-0.1,0.15-0.2,0.23-0.31c0.38-0.51,0.3-0.41-0.24,0.31
			c0.04,0.02,0.69-0.84,0.73-0.88c0.46-0.53,0.93-1.04,1.42-1.54c0.49-0.5,1-0.98,1.52-1.45c0.28-0.25,0.57-0.5,0.87-0.75
			c0.32-0.27,1.34-0.87-0.02-0.01c1.18-0.75,2.28-1.61,3.51-2.31c0.66-0.38,1.34-0.73,2.03-1.06c0.23-0.11,0.46-0.21,0.69-0.32
			c0.59-0.26,0.46-0.21-0.38,0.15c0.24-0.1,0.47-0.19,0.71-0.28c1.5-0.58,2.75-1.32,3.59-2.76c0.75-1.29,1.07-3.18,0.6-4.62
			C213.37,106.37,210.04,103.81,206.9,105.02L206.9,105.02z"/>
	</g>
</g>
<g>
	<g>
		<path class="st0" d="M223.65,117.41c0.3,12.44,2.56,25.19,7.26,36.75c1.3,3.21,3.03,6.47,6.31,8.05
			c3.99,1.92,8.47,1.26,12.17-1.04c5.49-3.43,8.92-9.34,10.38-15.53c0.88-3.73,1.19-7.59,1.47-11.41c0.27-3.71,0.54-7.42,0.82-11.13
			c-3.93,0.53-7.86,1.06-11.79,1.6c2.81,11.48,5.61,22.96,8.42,34.44c0.75,3.05,4.36,5.17,7.38,4.19c3.17-1.03,4.99-4.11,4.19-7.38
			c-2.81-11.48-5.61-22.96-8.42-34.44c-0.71-2.9-3.73-4.68-6.58-4.3c-3.08,0.41-4.98,2.88-5.2,5.89c-0.21,2.89-0.42,5.78-0.64,8.66
			c-0.1,1.37-0.2,2.74-0.31,4.11c-0.05,0.63-0.1,1.26-0.16,1.88c-0.03,0.31-0.06,0.63-0.1,0.94c-0.03,0.25-0.14,1.86-0.02,0.28
			c-0.1,1.23-0.4,2.5-0.7,3.7c-0.15,0.61-0.32,1.21-0.5,1.81c-0.11,0.33-0.22,0.67-0.34,0.99c-0.31,0.84-0.18,0.33,0.1-0.17
			c-0.54,0.96-0.95,1.98-1.55,2.91c-0.14,0.22-0.3,0.42-0.43,0.64c-0.42,0.67,0.76-0.89,0.24-0.29c-0.42,0.49-0.83,0.97-1.29,1.41
			c-0.18,0.18-0.37,0.35-0.56,0.52c-0.05,0.04-0.1,0.08-0.14,0.13c-0.4,0.32-0.39,0.32,0.01,0c0.1-0.08,0.2-0.16,0.3-0.24
			c-0.21,0.15-0.42,0.29-0.64,0.42c-0.22,0.14-0.44,0.26-0.66,0.39c-0.55,0.33-0.2,0.43,0.27-0.07c-0.11,0.12-0.71,0.23-0.82,0.27
			c-0.39,0.13-1.03,0.05,0.34,0c-0.55-0.01-0.56,0.01-0.03,0.08c0.52,0.1,0.51,0.09-0.02-0.03c0.11,0.05,1.22,0.65,0.41,0.17
			c-0.71-0.42,0.38,0.02,0.39,0.32c0-0.04-0.51-0.52-0.48-0.5c0.76,0.52,0.62,0.89,0.31,0.36c-0.25-0.42-0.47-0.84-0.7-1.27
			c-0.47-0.87,0.13,0.3,0.16,0.44c-0.08-0.37-0.3-0.75-0.43-1.1c-1.92-5.07-3.43-10.3-4.53-15.61c-0.3-1.44-0.56-2.89-0.8-4.34
			c-0.11-0.68-0.27-1.38-0.31-2.07c0.09,1.37,0.07,0.53,0.03,0.21c-0.06-0.46-0.11-0.92-0.17-1.38c-0.35-3.08-0.55-6.17-0.63-9.27
			c-0.08-3.14-2.71-6.15-6-6C226.47,111.55,223.57,114.05,223.65,117.41L223.65,117.41z"/>
	</g>
</g>
<g>
	<g>
		<path class="st0" d="M271.4,112.6c0.86,6.55,1.92,13.07,3.29,19.53c0.64,3.01,1.34,6,2.09,8.98c0.71,2.8,1.32,5.94,2.94,8.39
			c2.23,3.38,5.9,5.52,10.03,5.27c3.79-0.23,7.2-2.05,9.77-4.81c3.92-4.21,6.42-9.67,7.75-15.22c1.45-6.01,1.76-12.26,1.97-18.42
			c-3.93,0.53-7.86,1.06-11.79,1.6c3.15,11.32,6.3,22.64,9.44,33.96c0.84,3.02,4.29,5.19,7.38,4.19c3.09-1,5.09-4.14,4.19-7.38
			c-3.15-11.32-6.3-22.64-9.44-33.96c-0.8-2.89-3.66-4.69-6.58-4.3c-2.99,0.4-5.1,2.88-5.2,5.89c-0.08,2.29-0.16,4.57-0.33,6.86
			c-0.08,1.08-0.17,2.16-0.29,3.23c-0.03,0.27-0.06,0.54-0.09,0.8c-0.11,0.95,0.09-0.38,0.06-0.39c0.08,0.03-0.25,1.64-0.28,1.79
			c-0.39,2.22-0.91,4.41-1.66,6.54c-0.17,0.49-0.37,0.98-0.55,1.47c-0.29,0.75,0.5-1.07,0.14-0.35c-0.12,0.23-0.22,0.47-0.33,0.71
			c-0.49,1-1.03,1.97-1.64,2.9c-0.19,0.29-0.6,1.16-0.91,1.3c0.4-0.17,0.71-0.86,0.2-0.29c-0.17,0.2-0.34,0.4-0.52,0.59
			c-0.11,0.11-1.05,1.14-1.13,1.09c-0.07-0.05,1.08-0.72,0.28-0.23c-0.17,0.11-0.9,0.43-1.01,0.58c0.13-0.18,1.33-0.37,0.34-0.18
			c-0.18,0.04-0.64,0.11-0.77,0.18c0.02-0.01,1.52-0.36,0.42-0.12c-0.33,0.07-1.25-0.27,0.44,0.08c-0.45-0.09-0.77-0.4,0.34,0.23
			c-0.75-0.43,0.25,0.04,0.26,0.32c0-0.04-0.56-0.51-0.51-0.49c0.32,0.11,0.76,1.15,0.21,0.2c-0.12-0.21-0.22-0.43-0.34-0.64
			c-0.37-0.68,0.4,1.16,0.18,0.42c-0.14-0.47-0.31-0.94-0.45-1.41c-0.36-1.27-0.68-2.54-1-3.82c-0.67-2.67-1.3-5.34-1.88-8.03
			c-0.65-3-1.23-6.02-1.76-9.05c-0.25-1.43-0.49-2.87-0.71-4.31c-0.12-0.8-0.24-1.6-0.36-2.4c-0.05-0.32-0.09-0.64-0.14-0.96
			c-0.19-1.31,0.14,1.1-0.05-0.33c-0.22-1.66-0.53-3.01-1.76-4.24c-1.04-1.04-2.75-1.82-4.24-1.76
			C274.5,106.73,270.96,109.26,271.4,112.6L271.4,112.6z"/>
	</g>
</g>
<g>
	<g>
		<path class="st0" d="M30.27,114.59c-1.82,21.01-2.29,42.13-1.39,63.2c0.14,3.21,1.63,6.12,4.46,7.77c1.4,0.81,2.92,1.22,4.54,1.23
			c1.62-0.01,3.14-0.41,4.54-1.23c1.99-0.9,3.52-2.93,4.34-4.89c0.92-2.18,1.14-4.43,0.47-6.74c-1.32-4.52-6.4-7.8-11.07-6.29
			c-4.58,1.48-7.7,6.23-6.29,11.07c0.03,0.1,0.06,0.19,0.08,0.29c-0.11-0.8-0.21-1.6-0.32-2.39c0,0.1-0.01,0.2-0.01,0.3
			c0.11-0.8,0.21-1.6,0.32-2.39c-0.03,0.1-0.06,0.19-0.09,0.29c0.3-0.72,0.6-1.43,0.91-2.15c-0.05,0.09-0.11,0.17-0.16,0.26
			c0.47-0.61,0.94-1.21,1.41-1.82c-0.07,0.07-0.15,0.13-0.22,0.2c0.61-0.47,1.21-0.94,1.82-1.41c-0.09,0.04-0.18,0.08-0.28,0.12
			c4.51,2.59,9.03,5.18,13.54,7.77c-0.9-21.07-0.43-42.19,1.39-63.2c0.19-2.18-1.14-4.87-2.64-6.36c-1.56-1.56-4.12-2.74-6.36-2.64
			c-2.33,0.1-4.74,0.87-6.36,2.64C31.21,110.07,30.48,112.09,30.27,114.59L30.27,114.59z"/>
	</g>
</g>
<g>
	<g>
		<path class="st0" d="M354.96,43.41c-2.05,1.32-3.75,3-5.12,5.02c-1.36,2.01-2.37,4.47-2.56,6.9c-0.14,1.78,0.72,3.59,2.27,4.51
			c1.79,1.06,4.09,0.71,5.37-0.95c1.59-2.06,1.63-4.91,2.08-7.37c0.1-0.56,0.23-1.11,0.4-1.65c0.04-0.11,0.07-0.22,0.11-0.34
			c0.17-0.46,0.06-0.03-0.07,0.14c0.15-0.19,0.23-0.49,0.35-0.71c0.09-0.17,0.39-0.48,0.42-0.66c-0.01,0.06-0.48,0.55-0.15,0.2
			c0.1-0.1,0.19-0.21,0.29-0.31c0.08-0.08,0.17-0.15,0.25-0.23c0.25-0.24-0.58,0.36-0.14,0.11c0.25-0.14,0.49-0.28,0.75-0.4
			c0.64-0.27,1.2-1.16,1.38-1.79c0.2-0.72,0.11-1.67-0.3-2.31c-0.41-0.64-1.03-1.2-1.79-1.38c-0.84-0.19-1.53-0.03-2.31,0.3
			c-1.79,0.77-3.19,2.47-3.96,4.22c-0.41,0.94-0.75,1.87-0.95,2.87c-0.2,1.02-0.32,2.05-0.49,3.07c-0.08,0.47-0.16,0.94-0.28,1.41
			c-0.06,0.25-0.13,0.5-0.2,0.74c-0.03,0.11-0.07,0.21-0.1,0.31c-0.03,0.09-0.22,0.56-0.04,0.14c0.17-0.4-0.01-0.04-0.05,0.06
			c-0.1,0.27,0.18-0.24,0.2-0.26c0.5-0.47,1.23-0.7,1.9-0.55c0.52,0.12,0.54,0.25,0.29,0.1c0.2,0.12,0.35,0.25,0.49,0.44
			c0.14,0.18,0.22,0.35,0.28,0.57c-0.16-0.53-0.04,0.47-0.01,0.11c0.01-0.11,0.03-0.79,0-0.31c-0.03,0.48,0.08-0.26,0.11-0.39
			c0.11-0.43,0.24-0.85,0.4-1.27c0.03-0.09,0.07-0.18,0.1-0.27c0.13-0.37-0.25,0.55-0.08,0.19c0.08-0.17,0.16-0.35,0.24-0.52
			c0.21-0.43,0.44-0.84,0.69-1.24c0.12-0.19,0.24-0.37,0.36-0.56c0.05-0.08,0.11-0.16,0.16-0.23c0.03-0.04,0.41-0.55,0.11-0.15
			c-0.26,0.34-0.06,0.07,0,0.01c0.1-0.12,0.2-0.24,0.31-0.36c0.15-0.17,0.3-0.33,0.45-0.49c0.35-0.36,0.73-0.7,1.11-1.03
			c0.07-0.06,0.34-0.26-0.01,0c-0.36,0.27,0,0,0.07-0.05c0.23-0.17,0.47-0.33,0.71-0.48c1.32-0.85,1.98-2.7,1.08-4.1
			C358.21,43.17,356.37,42.5,354.96,43.41L354.96,43.41z"/>
	</g>
</g>
<g>
	<g>
		<path class="st0" d="M352.77,84.57c-0.18,0.82-0.43,1.61-0.74,2.38c0.1-0.24,0.2-0.48,0.3-0.72c-0.47,1.12-1.08,2.16-1.82,3.12
			c0.16-0.2,0.31-0.4,0.47-0.61c-0.69,0.89-1.49,1.69-2.37,2.38c-0.16,0.2-0.31,0.4-0.47,0.61c-0.22,0.34-0.34,0.72-0.36,1.12
			c-0.09,0.64,0,1.35,0.36,1.91c0.75,1.17,2.03,1.66,3.39,1.38c0.86-0.18,1.73-0.54,2.46-1.02c0.98-0.64,1.67-1.36,2.36-2.29
			c-1.37,0.36-2.74,0.72-4.1,1.08c1.03,0.48,1.86,0.71,2.98,0.84c0.82,0.09,1.65-0.01,2.45-0.18c1.51-0.32,2.62-2.23,2.1-3.69
			c-0.22-0.63-0.38-1.26-0.47-1.92c0.04,0.27,0.07,0.53,0.11,0.8c-0.1-0.8-0.1-1.6-0.01-2.4c-0.04,0.27-0.07,0.53-0.11,0.8
			c0.07-0.52,0.18-1.02,0.33-1.52c0.45-1.5-0.54-3.34-2.1-3.69c-1.62-0.37-3.21,0.49-3.69,2.1c-0.72,2.39-0.69,5.09,0.15,7.44
			c0.7-1.23,1.4-2.46,2.1-3.69c-0.13,0.03-0.26,0.05-0.39,0.07c0.27-0.04,0.53-0.07,0.8-0.11c-0.44,0.06-0.88,0.05-1.33,0
			c0.27,0.04,0.53,0.07,0.8,0.11c-0.4-0.06-0.78-0.16-1.15-0.31c0.24,0.1,0.48,0.2,0.72,0.3c-0.08-0.03-0.16-0.07-0.24-0.11
			c-0.72-0.33-1.52-0.56-2.31-0.3c-0.24,0.1-0.48,0.2-0.72,0.3c-0.45,0.27-0.81,0.63-1.08,1.08c-0.02,0.03-0.05,0.07-0.07,0.1
			c0.16-0.2,0.31-0.4,0.47-0.61c-0.26,0.32-0.54,0.61-0.86,0.86c0.2-0.16,0.4-0.31,0.61-0.47c-0.36,0.27-0.74,0.5-1.16,0.68
			c0.24-0.1,0.48-0.2,0.72-0.3c-0.31,0.12-0.61,0.22-0.94,0.28c0.97,1.67,1.95,3.34,2.92,5.01c2.86-2.25,4.94-5.66,5.71-9.21
			c0.17-0.79,0.11-1.6-0.3-2.31c-0.36-0.62-1.08-1.22-1.79-1.38c-0.77-0.17-1.63-0.14-2.31,0.3
			C353.51,83.19,352.94,83.81,352.77,84.57L352.77,84.57z"/>
	</g>
</g>
<g>
	<g>
		<path class="st0" d="M426.87,54.36c4.54-7.44,4.96-16.57,1.6-24.53c-0.71-1.68-3.59-1.99-4.71-0.61
			c-2.43,3.01-5.29,5.58-8.62,7.54c-3.53,2.08-7.52,3.22-10.98,5.42c-3.82,2.43-7.35,5.37-10.96,8.09
			c-3.56,2.68-7.06,5.46-10.74,7.97c-1.76,1.2-3.59,2.31-5.53,3.18c-1.87,0.83-3.82,1.47-5.68,2.31c-3.79,1.71-7.44,4.79-7.65,9.24
			c-0.18,3.84,2.8,6.71,6.02,8.24c2.81,1.33,6.24,1.77,8.09,4.25c-0.22-0.29,0.37,0.77,0.19,0.31c0.07,0.18,0.14,0.41,0.16,0.59
			c-0.05-0.38,0,0-0.05,0.12c0.08-0.18-0.05,0.09-0.14,0.25c-0.05,0.08-0.34,0.45-0.05,0.07c-0.12,0.16-0.31,0.24-0.04,0.09
			c-0.13,0.08-0.99,0.54-0.6,0.38c-0.38,0.16-0.8,0.26-1.2,0.35c0.01,0-0.51,0.1-0.23,0.06c0.26-0.04-0.49,0.05-0.57,0.05
			c-0.43,0.03-0.86,0.04-1.29,0.02c-4.23-0.11-8.48-0.95-11.86,2.31c-1.13,1.09-1.18,3.16,0,4.24c4.49,4.13,6.96,9.83,6.92,15.91
			c-0.04,6.01-1.14,12.67,3.53,17.38c1.81,1.82,5.17,0.49,5.12-2.12c-0.05-3.07,2.07-6.16,5.11-7.06c2.06-0.61,4.37-0.22,6.4-1.38
			c1.55-0.89,2.61-2.28,3.29-3.91c0.66-1.6,0.88-3.27,1.1-4.97c0.05-0.36,0.09-0.73,0.13-1.09c0.02-0.18,0.04-0.36,0.07-0.55
			c-0.02,0.12-0.09,0.57,0-0.01c0.11-0.69,0.23-1.38,0.42-2.06c0.05-0.19,0.38-1.05,0.11-0.44c0.13-0.29,0.3-0.55,0.45-0.83
			c0.25-0.46,0.04-0.03-0.05,0.06c0.1-0.11,0.21-0.23,0.33-0.33c-0.13,0.11-0.48,0.23-0.04,0.05c0.45-0.19-0.17,0,0.23-0.13
			c0.46-0.15,1.04-0.04,1.61,0.26c0.79,0.42,1.35,1.1,1.82,1.87c1.38,2.24,2.18,4.82,3.31,7.19c1.28,2.67,2.73,5.25,4.33,7.75
			c1.21,1.89,3.99,1.98,5.18,0c2.72-4.54,5.45-9.08,8.17-13.62c-1.83-0.24-3.66-0.48-5.48-0.72c1.16,3.39,3.71,5.92,7.09,7.09
			c1.32,0.46,2.81,0.61,4.2,0.47c0.82-0.08,1.62-0.23,2.44-0.34c-0.5,0.06,0.57-0.05,0.53-0.05c0.12-0.01,1.3,0.02,0.75-0.06
			c0.09,0.02,0.19,0.04,0.28,0.06c0.34,0.1,0.36,0.11,0.05,0.01c0,0-0.48-0.37-0.34-0.44c0.03-0.01,0.21,1.05,0.25,1.35
			c0.22,1.81,0.72,3.53,2.36,4.57c0.88,0.55,1.91,0.74,2.93,0.7c0.34-0.01,0.96-0.11,1.23-0.17c0.14-0.01,0.27-0.01,0.41-0.02
			c-0.34-0.07-0.34-0.06,0,0.02c-0.08-0.03-0.17-0.07-0.25-0.1c0.29,0.18,0.28,0.18-0.01-0.02c0.45,0.44-0.06-0.4,0.17,0.23
			c0.19,0.53,0.11,0.16,0.06,0.04c0.16,0.36,0.25,0.76,0.34,1.14c0.16,0.73,0.13,1.91,0.11,3.12c-0.02,1.46,0.12,3.02,0.59,4.42
			c0.42,1.26,1.04,2.48,2.03,3.38c1.32,1.2,3.62,2,5.39,1.36c1.25-0.46,0.41,0.01,0.38-0.07c-0.21-0.12-0.41-0.25-0.62-0.37
			c-0.17-0.29-0.17-0.28,0.01,0.02c-0.16-0.63,0.08,0.32,0.09,0.36c0.05,0.2,0.09,0.4,0.14,0.6c0.36,1.67,0.73,3.21,1.85,4.56
			c2.11,2.54,5.69,3.19,8.81,2.74c3.46-0.51,6.71-2.46,10.21-1.56c3.45,0.89,6.36,3.3,9.05,5.55c0.99,0.83,2.45,1.23,3.64,0.47
			c1.4-0.9,2.46-2.13,3.18-3.64c0.59-1.24,1.04-2.91,1.53-3.92c0.32-0.65,0.55-0.9,0.97-1.4c-0.21,0.25,0.22-0.42,0.05-0.11
			c0.13-0.25,0.49-0.02,0.04-0.09c0.29,0.05,0.57,0.27,0.79,0.43c0.79,0.57,1.49,1.28,2.34,1.77c2.96,1.69,6.19,1.06,9.06-0.47
			c2.27-1.21,4.47-3.09,6.75-3.68c2.5-0.65,5.67-0.17,8.37-1.21c1.7-0.66,3.04-1.7,4.09-3.19c0.9-1.28,1.25-3,2.27-4.19
			c0.04-0.05,0.7-0.66,0.79-0.51c-0.02,0.01-0.04,0.01-0.07,0.02c-0.2,0.07-0.4,0.02-0.6-0.14c0.5,0.2,0.09,0.11-0.05-0.13
			c0.76,1.24,1.17,2.61,2.12,3.74c2.39,2.83,5.98,2.12,8.72,0.29c0.72-0.48,1.41-1.02,2.18-1.44c0.54-0.29,0.74-0.37,1.42-0.35
			c0.25,0.01,0.9,0.16,1.11,0.26c0.73,0.31,1.2,0.66,1.7,1.15c2.25,2.2,2.44,6.14,2.63,9.28c0.14,2.26,2.44,3.75,4.51,2.59
			c1.3-0.73,2.75-0.79,4.1-0.12c1.86,0.92,3.41,2.26,5.63,2.16c4.44-0.21,6.09-5.83,6.62-9.46c1.06-7.27-1.47-15.06-7.17-19.85
			c0.16,1.21,0.31,2.42,0.47,3.64c1.89-2.64,4.84-4.15,8-4.64c2.2-0.34,2.92-3.63,1.32-5.01c-5.14-4.47-11.07-9.15-18.31-8.49
			c-1.67,0.15-3.32,0.54-5,0.61c-1.22,0.05-2.34-0.06-3.19-0.73c0.24,0.18-0.47-0.49-0.41-0.42c0.27,0.3-0.06-0.47-0.01-0.06
			c-0.06-0.53-0.1-0.62,0.15-1.27c0.49-1.26,1.5-2.49,2.15-3.74c2.78-5.35,1.93-11.35,1.77-17.13c-0.03-1.24-0.03-2.49,0.08-3.72
			c0.06-0.7,0.04-0.62,0.22-1.44c0.14-0.61,0.3-1.23,0.54-1.81c-0.2,0.49,0.22-0.43,0.21-0.42c0.15-0.28,0.31-0.55,0.48-0.81
			c-0.05,0.08,0.96-1.25,1.04-1.17c0.21,0.21-1.3-0.1-1.16-0.12c0.17-0.02,0.18,0.19,0.27,0.35c0.08,0.13,0.49,1.01,0.39,0.76
			c1.11,2.81,2.04,5.5,3.86,7.96c1.82,2.46,3.96,4.55,6.45,6.31c2.44,1.72,5.25,3.03,8.14,3.82c1.41,0.38,2.86,0.62,4.31,0.76
			c1.99,0.2,4.58,0.5,5.81-1.41c3.9-6-2.37-11.69-3.85-17.1c-0.69-2.51-0.67-4.99-0.99-7.77c-0.32-2.75-0.83-5.58-2.46-7.89
			c-1.17-1.65-2.69-2.85-4.48-3.78c-1.25-0.65-2.98-1.17-3.74-2.41c-0.06-0.11-0.13-0.22-0.19-0.33c0.04,0.02,0.04,0.06-0.01,0.1
			c-0.04-0.38-0.04-0.48,0.02-0.3c-0.12,0.26-0.1,0.24,0.07-0.07c-0.07,0.04-0.39,0.44,0.07-0.09c0.27-0.3,0.58-0.57,0.88-0.84
			c1.2-1.08,2.35-2.2,2.88-3.76c0.84-2.46-1.16-4-2.41-5.85c-1.01-1.5-1.89-3.07-2.65-4.71c-1.45-3.16-2.31-6.66-2.57-10.12
			c-0.11-1.48-1.06-2.76-2.6-2.95c-1.37-0.16-3.02,0.66-3.29,2.15c-1.33,7.24-6.89,12.48-11.92,17.43c-3.12,3.07-6.2,6.19-9.36,9.21
			c-1.21,1.16-2.55,2.42-4.19,2.92c-1.14,0.35-2.38,0.35-3.17-0.39c-1.87-1.74-5.13-0.55-5.12,2.12c0.01,2.87,0.08,6.7-1.99,8.59
			c0.37-0.34-0.26,0.17-0.32,0.21c-0.17,0.1-0.34,0.19-0.51,0.27c0.23-0.09,0.24-0.1,0.04-0.03c-0.32,0.11-0.65,0.2-0.98,0.26
			c0.58-0.11-0.25,0.01-0.34,0.01c-0.19,0-0.37-0.01-0.56-0.02c0.3,0.05,0.34,0.05,0.12,0c-0.18-0.05-0.93-0.4-0.41-0.1
			c-0.14-0.08-0.63-0.52-0.24-0.14c-0.23-0.25-0.24-0.25-0.04-0.01c-0.1-0.16-0.19-0.32-0.27-0.49c-0.53-1.05-1.88-1.6-2.99-1.43
			c-1.26,0.19-2.04,0.99-2.49,2.15c-0.67,1.74-1.37,3.58-2.53,5.06c-0.86,1.1-2.17,1.93-3.17,2.05c-0.19,0.02-1.14-0.05-0.91,0
			c-0.01,0-0.8-0.27-0.56-0.18c-0.36-0.23-0.4-0.25-0.12-0.05c-0.23-0.25-0.25-0.25-0.06,0c-0.1-0.15-0.19-0.3-0.28-0.46
			c0.12,0.3,0.12,0.29,0-0.04c-0.05-0.23-0.08-0.79-0.08-0.27c-0.01-0.18-0.01-0.36,0-0.54c-0.06,0.35-0.06,0.36,0.01,0.01
			c0.11-0.33,0.1-0.33-0.04-0.01c0.07-0.15,0.16-0.3,0.26-0.44c-0.07,0.17-0.2,0.29-0.37,0.37c0.3-0.17,0.29-0.18-0.01-0.05
			c1.51-0.58,2.56-2.02,2.1-3.69c-0.4-1.44-2.17-2.68-3.69-2.1c-6.31,2.44-5.15,11.71,1.23,13.24c3.25,0.78,6.68-0.48,9.07-2.7
			c2.47-2.3,3.73-5.53,4.92-8.6c-1.83,0.24-3.66,0.48-5.48,0.72c2.14,4.22,8,4.64,11.65,2.22c4.57-3.02,5.05-8.83,5.04-13.82
			c-1.71,0.71-3.41,1.41-5.12,2.12c3.71,3.46,9.12,2.72,12.97-0.1c1.89-1.39,3.53-3.07,5.19-4.71c1.88-1.85,3.75-3.7,5.63-5.54
			c6.16-6.07,13.23-12.55,14.86-21.46c-1.96-0.27-3.93-0.53-5.89-0.8c0.59,7.96,3.63,15.35,8.77,21.44
			c-0.26-0.97-0.51-1.95-0.77-2.92c-0.02,0.1-0.17,0.55,0.03,0.1c-0.05,0.12-0.13,0.27-0.22,0.37c-0.22,0.25-0.02,0.01,0.02-0.04
			c-0.13,0.15-0.28,0.29-0.42,0.43c-0.55,0.53-1.16,1-1.68,1.55c-1.46,1.55-2.25,3.43-1.92,5.58c0.36,2.33,1.98,4.25,3.9,5.52
			c1.47,0.97,3.28,1.47,4.63,2.6c1.05,0.88,1.42,1.73,1.79,3.13c0.45,1.65,0.5,2.63,0.65,4.37c0.31,3.66,0.67,7.15,2.25,10.51
			c0.89,1.89,2.04,3.64,2.91,5.54c0.24,0.53,0.62,1.64,0.68,2.1c0.08,0.68-0.03,1.05-0.37,1.63c0.86-0.5,1.73-0.99,2.59-1.49
			c-6.5,0.29-12.96-2.77-16.96-8.02c-0.93-1.23-1.87-2.8-2.49-4.31c-0.53-1.29-0.97-3.16-1.83-4.53c-1.1-1.76-2.86-3.05-5.01-2.89
			c-2.36,0.17-4.07,1.99-5.32,3.84c-4,5.9-1.89,13.55-2.19,20.15c-0.07,1.6-0.23,2.68-0.78,4.35c-0.18,0.54-0.47,1.1-0.9,1.82
			c-0.51,0.85-1.06,1.68-1.51,2.56c-1.01,1.99-1.56,4.18-0.86,6.37c0.61,1.93,2.14,3.51,3.95,4.37c2.22,1.06,4.57,1.24,6.99,0.94
			c2.23-0.28,4.54-0.82,6.76-0.33c4.18,0.92,7.58,3.87,10.72,6.61c0.44-1.67,0.88-3.34,1.32-5.01c-4.75,0.73-8.82,3.53-11.59,7.39
			c-0.71,0.99-0.47,2.84,0.47,3.64c4.24,3.57,6.31,9.22,5.58,14.36c-0.18,1.26-0.62,2.86-1.03,3.79c-0.05,0.11-0.55,1.17-0.6,1.15
			c-0.38-0.19,0.47-0.16,0.5-0.21c0.08-0.1,0.67,0.42-0.22-0.14c-0.34-0.21-0.69-0.4-1.03-0.61c-3.5-2.14-7.5-2.54-11.16-0.49
			c1.5,0.86,3.01,1.73,4.51,2.59c-0.24-3.79-0.56-7.73-2.5-11.08c-1.77-3.06-4.91-5.2-8.44-5.56c-1.79-0.19-3.57,0.32-5.11,1.22
			c-0.65,0.38-1.25,0.82-1.87,1.24c-0.3,0.21-0.61,0.41-0.92,0.6c-0.14,0.09-0.9,0.44-0.66,0.34c-0.38,0.16-0.25,0.05,0.08,0.05
			c0.37,0.01,0.13,0.36,0.07-0.02c0,0.02,0.25,0.36,0.05,0.03c-0.08-0.12-0.15-0.25-0.22-0.38c-0.16-0.31-0.3-0.63-0.45-0.95
			c-0.66-1.44-1.54-2.8-3.01-3.53c-3.97-1.96-7.55,1.28-9.17,4.69c-0.6,1.27-1.21,2.53-2.15,2.92c-1.08,0.45-2.27,0.43-3.65,0.52
			c-1.62,0.1-3.3,0.2-4.86,0.7c-1.6,0.51-3.08,1.32-4.49,2.2c-1.25,0.77-2.47,1.62-3.79,2.24c-0.28,0.13-0.77,0.33-1.38,0.42
			c0.46-0.07-0.26-0.01-0.4-0.02c0.51,0.03-0.45-0.13-0.35-0.09c-0.52-0.2-1.1-0.75-1.67-1.2c-0.87-0.69-1.75-1.31-2.82-1.65
			c-2.14-0.69-4.35-0.01-6.01,1.42c-1.52,1.31-2.4,3.17-3.05,5.02c-0.22,0.62-0.53,1.53-0.71,1.9c-0.17,0.36-0.38,0.7-0.59,1.03
			c0.04-0.07,0.17-0.2-0.06,0.04c-0.33,0.35,0.43-0.21-0.31,0.26c1.21,0.16,2.42,0.31,3.64,0.47c-5.4-4.52-11.5-8.84-18.91-7.15
			c-1.69,0.39-3.31,1.04-5.01,1.41c-1.09,0.24-1.97,0.32-3.19-0.16c0.44,0.17-0.44-0.26-0.43-0.25c0.39,0.27-0.33-0.33-0.34-0.33
			c0.33,0.33-0.14-0.5,0-0.02c-0.06-0.2-0.12-0.39-0.17-0.59c-0.38-1.43-0.49-2.88-1.3-4.17c-0.95-1.53-2.62-2.38-4.41-2.37
			c-0.53,0-1.08,0.1-1.59,0.2c-1.26,0.25-0.05-0.15-0.15,0.05c-0.08-0.02-0.17-0.05-0.25-0.07c0.19,0.03,0.34,0.12,0.45,0.27
			c-0.13-0.11-0.25-0.23-0.36-0.36c0.2,0.26,0.21,0.25,0.02-0.05c-0.23-0.82,0.08,0.31-0.1-0.19c-0.08-0.23-0.15-0.47-0.21-0.71
			c-0.07-0.3-0.14-0.6-0.18-0.9c0.08,0.58-0.01-0.42-0.01-0.44c-0.06-1.21,0.08-2.41-0.04-3.61c-0.29-3.03-1.45-6.3-4.56-7.41
			c-0.72-0.26-1.49-0.35-2.24-0.31c-0.28,0.01-1.08,0.12-1.23,0.17c-0.13,0.01-0.27,0.01-0.4,0.02c0.46,0.05,0.82,0.25,1.07,0.58
			c0.04,0.07,0.07,0.14,0.11,0.21c-0.05-0.19-0.09-0.38-0.12-0.57c0.08,0.47,0-0.05,0-0.13c-0.09-0.88-0.19-1.77-0.5-2.6
			c-0.68-1.82-2.16-3.14-4.07-3.54c-1.85-0.39-3.62,0.04-5.46,0.25c0.55-0.06-0.56,0.03-0.51,0.03c-0.26,0.01-0.92-0.02-0.99-0.04
			c-0.41-0.07-1.16-0.35-1.51-0.54c-1.15-0.63-1.98-1.58-2.35-2.64c-0.82-2.4-4.1-3.02-5.48-0.72c-2.72,4.54-5.45,9.08-8.17,13.62
			c1.73,0,3.45,0,5.18,0c-1.55-2.43-2.97-4.94-4.22-7.54c-1.17-2.43-2-5.09-3.42-7.4c-1.42-2.32-3.56-4.3-6.27-4.94
			c-2.51-0.59-5.22,0.04-7.03,1.92c-1.29,1.34-2.01,3.14-2.37,4.94c-0.18,0.92-0.3,1.87-0.41,2.8c-0.05,0.41-0.1,0.82-0.15,1.23
			c-0.01,0.11-0.08,0.59,0,0.02c-0.04,0.27-0.08,0.54-0.12,0.8c-0.13,0.77-0.32,1.5-0.56,2.24c0.19-0.59-0.09,0.14-0.2,0.36
			c-0.07,0.13-0.17,0.27-0.25,0.39c0.42-0.58,0-0.02-0.15,0.08c0.46-0.3-0.32,0.14-0.45,0.18c-0.43,0.11-0.83,0.14-1.27,0.18
			c-1.32,0.1-2.66,0.22-3.92,0.67c-5.29,1.88-9.11,7-9.02,12.68c1.71-0.71,3.41-1.41,5.12-2.12c-1.67-1.68-1.94-3.95-1.96-6.48
			c-0.03-2.98,0.35-5.95,0.12-8.93c-0.53-6.79-3.58-13.26-8.61-17.88c0,1.41,0,2.83,0,4.24c0.42-0.4,0.7-0.54,1.34-0.69
			c0.71-0.17,1.18-0.17,2.04-0.15c1.68,0.03,3.36,0.34,5.04,0.29c3.53-0.11,7.32-1.38,8.78-4.88c1.68-4.04-0.91-7.76-4.21-9.94
			c-2.83-1.86-6.02-2.12-8.6-4.04c0.3,0.22-0.38-0.35-0.46-0.43c-0.11-0.1-0.22-0.22-0.31-0.33c0.27,0.34-0.01-0.05-0.05-0.11
			c-0.01-0.01-0.23-0.43-0.11-0.17c0.14,0.3-0.08-0.27-0.1-0.34c-0.08-0.33-0.03-0.04-0.02,0.03c-0.03-0.23-0.04-0.53,0-0.76
			c0.21-1.11,1.7-2.27,2.8-2.92c3.49-2.04,7.49-2.97,10.97-5.08c3.82-2.31,7.32-5.17,10.88-7.85c3.62-2.72,7.21-5.51,10.88-8.17
			c1.95-1.41,3.99-2.6,6.19-3.58c2.12-0.94,4.28-1.79,6.3-2.94c3.96-2.24,7.52-5.26,10.38-8.8c-1.57-0.2-3.14-0.4-4.71-0.61
			c2.51,5.95,1.73,13.02-1.6,18.48C419.67,54.64,424.86,57.66,426.87,54.36L426.87,54.36z"/>
	</g>
</g>
<g>
	<g>
		<path class="st0" d="M423.38,50.09c-4.49,1.7-9.66,4.06-10.87,9.22c-1.19,5.06,1.79,10.1,7.28,10.2c2.46,0.05,4.83-0.88,7.27-1.06
			c2.19-0.16,3.85,0.23,5.41,1.56c2.2,1.87,4.41,3.26,7.42,2.77c1.33-0.21,2.54-0.76,3.75-1.34c0.98-0.47,1.64-0.84,2.47-0.91
			c-0.36,0.03,0.65,0.02,0.57,0.02c-0.37-0.01,0.06,0.13,0.02,0.02c-0.03-0.08-0.59-0.38,0,0.05c-0.37-0.27-0.09-0.69-0.16-0.1
			c-0.12,1.01-0.41,2.27-0.64,3.44c-0.64,3.21-0.98,6.59,0.18,9.73c0.9,2.42,4.01,2.98,5.48,0.72c2.57-3.97,5.32-7.87,7.71-11.95
			c0.64-1.1,1.21-2.26,1.62-3.47c0.32-0.96,0.35-2.02,0.71-2.96c0.04-0.1,0.53-0.82,0.24-0.48c0.27-0.23,0.29-0.27,0.07-0.12
			c0.12-0.09,0.25-0.17,0.38-0.25c0.68-0.39,0.86-0.45,1.78-0.74c1.74-0.54,3.5-0.98,5.12-1.84c1.63-0.87,3.08-2.16,4.27-3.56
			c1.25-1.47,2.32-3.06,3.4-4.65c0.47-0.7,0.94-1.39,1.45-2.07c0.21-0.29,0.35-0.46,0.63-0.8c0.7-0.82,0.46-0.22-0.21-0.3
			c-0.5-0.14-1.01-0.27-1.51-0.41c0.08,0.06,0.17,0.11,0.25,0.17c-0.36-0.36-0.72-0.72-1.08-1.08c-0.16-0.79-0.22-0.87-0.19-0.24
			c0,0.27-0.01,0.55-0.01,0.82c0,0.55,0,1.09,0.04,1.64c0.08,1.08,0.25,2.11,0.64,3.11c0.74,1.87,2.12,3.36,3.93,4.24
			c1.5,0.73,3.09,1.14,4.68,1.62c0.29,0.09,0.57,0.18,0.85,0.28c0.18,0.06,0.37,0.13,0.55,0.2c-0.27-0.11-0.25-0.1,0.07,0.05
			c0.11,0.06,0.99,0.66,0.55,0.29c0.14,0.12,0.27,0.25,0.4,0.38c-0.17-0.25-0.16-0.23,0.04,0.07c0.89,1.35,2.65,1.93,4.1,1.08
			c1.34-0.78,1.97-2.75,1.08-4.1c-1.32-2-3.23-3.1-5.47-3.85c-0.86-0.29-1.74-0.51-2.6-0.77c-1.03-0.32-1.25-0.29-2.19-0.99
			c0.51,0.38-0.46-0.61-0.11-0.11c-0.31-0.44-0.46-0.93-0.53-1.48c-0.15-1.16,0.07-2.39-0.08-3.58c-0.23-1.83-1.64-3.31-3.55-3.34
			c-1.6-0.03-2.89,0.9-3.89,2.07c-1.56,1.85-2.85,3.89-4.24,5.87c-1.08,1.54-2.42,3.19-4,4.1c-0.84,0.49-1.3,0.61-2.39,0.93
			c-1.06,0.31-2.11,0.6-3.13,1.02c-2.52,1.03-4.46,2.74-5.19,5.44c-0.38,1.39-0.55,2.73-1.24,4.02c-0.74,1.4-1.65,2.71-2.51,4.03
			c-1.88,2.89-3.75,5.79-5.63,8.68c1.83,0.24,3.66,0.48,5.48,0.72c-0.83-2.23-0.6-4.48-0.14-6.76c0.5-2.46,1.33-5.01,0.22-7.43
			c-1.05-2.28-3.43-3.49-5.91-3.36c-2.46,0.13-4.26,1.45-6.51,2.17c-0.88,0.28-1.08,0.28-1.75-0.13c-0.63-0.38-1.45-1.18-2.19-1.75
			c-2.01-1.57-4.33-2.33-6.88-2.43c-2.42-0.1-4.82,0.47-7.17,0.92c-0.74,0.14-1.67,0.35-2.4,0.1c-0.14-0.05-0.28-0.14-0.41-0.22
			c-0.4-0.24,0.25,0.25-0.06-0.08c-0.33-0.36,0.23,0.33-0.06-0.06c-0.11-0.15-0.3-0.57-0.14-0.19c-0.07-0.18-0.11-0.37-0.17-0.56
			c-0.21-0.63-0.07,0.29-0.06-0.39c0-0.2,0-0.4,0-0.61c0.02-0.52-0.03,0.03,0.03-0.27c0.21-0.95,0.28-1.17,0.98-1.94
			c1.48-1.64,3.72-2.47,5.74-3.23c1.51-0.57,2.55-2.02,2.1-3.69C426.67,50.73,424.9,49.51,423.38,50.09L423.38,50.09z"/>
	</g>
</g>
<g>
	<g>
		<path class="st0" d="M442.48,57.3c1.83-1.33,3.66-2.66,5.65-3.74c1.97-1.07,4.11-1.7,6.34-1.99c2.34-0.31,4.86-0.16,7.09-1.02
			c2.71-1.05,4.36-3.04,4.74-5.92c0.15-1.14-0.88-2.35-1.84-2.74c-1.13-0.45-2.39-0.24-3.28,0.62c-1.17,1.13-2.84,1.83-4.35,1.86
			c-2.41,0.05-4.7-1.13-7.25-0.47c-2.25,0.58-4.05,2.21-5.64,3.82c-1.87,1.89-3.72,3.78-5.58,5.68c-2.71,2.76,1.53,7,4.24,4.24
			c1.81-1.84,3.62-3.68,5.43-5.52c1.19-1.21,2.36-2.62,3.93-2.48c1.28,0.12,2.53,0.56,3.83,0.69c1.14,0.11,2.3-0.02,3.42-0.24
			c2.35-0.45,4.52-1.7,6.23-3.34c-1.71-0.71-3.41-1.41-5.12-2.12c-0.03-0.1-0.02-0.19,0.03-0.28c-0.18,0.31-0.22,0.37-0.13,0.17
			c-0.24,0.17-0.25,0.25-0.41,0.32c-0.77,0.29-1.52,0.38-2.31,0.45c-2.32,0.2-4.67,0.39-6.94,0.94c-4.16,1.01-7.67,3.41-11.08,5.89
			c-1.31,0.95-1.95,2.61-1.08,4.1C439.13,57.52,441.16,58.26,442.48,57.3L442.48,57.3z"/>
	</g>
</g>
</svg>
